<?xml version="1.0" encoding="UTF-8"?>
<svg width="464px" height="390px" viewBox="0 0 464 390" version="1.1" xmlns="http://www.w3.org/2000/svg" xmlns:xlink="http://www.w3.org/1999/xlink">
    <!-- Generator: Sketch 61.2 (89653) - https://sketch.com -->
    <title>growth</title>
    <desc>Created with Sketch.</desc>
    <g id="Page-1" stroke="none" stroke-width="1" fill="none" fill-rule="evenodd">
        <g id="growth" fill="#000000" fill-rule="nonzero">
            <path d="M72.005,334.002 C72.004,334.002 72.002,334.002 72.0009998,334.002 L8.00099979,334.002 C3.584,334.001 0.002,337.581 0.000999790554,341.998 C0.000999790554,341.999 0.000999790554,342.001 0.000999790554,342.002 L0.000999790554,382.002 C3.98860632e-14,386.419 3.58,390.001 7.997,390.002 C7.998,390.002 8,390.002 8.00099979,390.002 L72.0009998,390.002 C76.418,390.003 80,386.423 80.0009998,382.006 C80.0009998,382.005 80.0009998,382.003 80.0009998,382.002 L80.0009998,342.002 C80.002,337.585 76.422,334.003 72.005,334.002 Z" id="Shape"></path>
            <path d="M296.005,286.002 C296.004,286.002 296.002,286.002 296.001,286.002 L232.001,286.002 C227.584,286.002 224.002,289.581 224.001,293.998 C224.001,293.999 224.001,294.001 224.001,294.002 L224.001,382.002 C224,386.419 227.58,390.002 231.997,390.002 C231.998,390.002 232,390.002 232.001,390.002 L296.001,390.002 C300.418,390.002 304,386.423 304.001,382.006 C304.001,382.005 304.001,382.003 304.001,382.002 L304.001,294.002 C304.002,289.585 300.422,286.002 296.005,286.002 Z" id="Shape"></path>
            <path d="M408.005,254.002 C408.004,254.002 408.002,254.002 408.001,254.002 L344.001,254.002 C339.584,254.002 336.002,257.581 336.001,261.998 C336.001,261.999 336.001,262.001 336.001,262.002 L336.001,382.002 C336,386.419 339.58,390.002 343.997,390.002 C343.998,390.002 344,390.002 344.001,390.002 L408.001,390.002 C412.418,390.002 416,386.423 416.001,382.006 C416.001,382.005 416.001,382.003 416.001,382.002 L416.001,262.002 C416.002,257.585 412.422,254.002 408.005,254.002 Z" id="Shape"></path>
            <path d="M184.005,310.002 C184.004,310.002 184.002,310.002 184.001,310.002 L120.001,310.002 C115.584,310.001 112.002,313.581 112.001,317.998 C112.001,317.999 112.001,318.001 112.001,318.002 L112.001,382.002 C112,386.419 115.58,390.001 119.997,390.002 C119.998,390.002 120,390.002 120.001,390.002 L184.001,390.002 C188.418,390.003 192,386.423 192.001,382.006 C192.001,382.005 192.001,382.003 192.001,382.002 L192.001,318.002 C192.002,313.585 188.422,310.003 184.005,310.002 Z" id="Shape"></path>
            <path d="M460.368,14.096 L440.731,1.299 C437.027,-1.111 432.071,-0.063 429.66,3.641 C429.638,3.675 429.616,3.71 429.594,3.744 L405.09,42.674 C397.731,26.608 378.742,19.55 362.676,26.909 C355.701,30.104 350.106,35.699 346.911,42.674 L322.407,3.744 C320.054,0.00264626711 315.114,-1.121 311.374,1.233 C311.339,1.255 311.305,1.277 311.271,1.299 L291.634,14.096 C287.957,16.492 286.897,21.404 289.259,25.104 L336.001,98.338 L336.001,240.002 C336,244.419 339.58,248.002 343.997,248.002 C343.998,248.002 344,248.002 344.001,248.002 L408.001,248.002 C412.418,248.002 416,244.423 416.001,240.006 C416.001,240.005 416.001,240.003 416.001,240.002 L416.001,98.338 L462.743,25.104 C465.105,21.404 464.045,16.492 460.368,14.096 Z M401.259,91.697 C400.439,92.983 400.003,94.476 400.001,96.002 L400.001,232.002 L384.001,232.002 L384.001,152.002 L368.001,152.002 L368.001,232.002 L352.001,232.002 L352.001,96.002 C352,94.477 351.563,92.983 350.743,91.697 L307.009,23.174 L313.196,19.143 L351.29,79.666 C353.536,83.242 358.176,84.453 361.884,82.432 L363.536,81.494 C367.606,79.774 369.511,75.08 367.792,71.01 C367.313,69.876 366.578,68.868 365.646,68.064 C362.074,65.075 360.008,60.659 360.001,56.002 C360.001,47.165 367.164,40.002 376.001,40.002 C384.838,40.002 392.001,47.165 392.001,56.002 C391.995,60.659 389.928,65.076 386.356,68.065 C384.343,69.996 383.458,72.823 384.012,75.557 C384.572,78.381 386.49,80.746 389.137,81.877 L390.117,82.432 C393.824,84.457 398.467,83.245 400.711,79.666 L438.805,19.143 L444.992,23.174 L401.259,91.697 Z" id="Shape"></path>
            <path d="M303.458304,199.676035 C302.571684,199.233732 301.594723,199.003 300.603372,199.003 L255.832657,199.003 C252.300567,199.003 249.43684,201.862001 249.43684,205.389247 C249.43684,206.650688 249.810996,207.883388 250.511338,208.933259 L259.272807,222.05704 C198.464582,251.272982 71.2917672,285.228909 0,285.228909 L0,298.003 C73.4687432,298.003 204.898773,262.780042 266.43692,232.788873 L276.094603,247.256329 C277.280228,249.033524 279.277321,250.100959 281.415922,250.100959 C281.547037,250.100959 281.681349,250.094572 281.812463,250.088185 C284.087775,249.944476 286.115249,248.605592 287.13698,246.57052 L306.32443,208.248248 C307.903397,205.089056 306.620236,201.252038 303.458304,199.676035 Z" id="Shape"></path>
        </g>
    </g>
</svg>